<?xml version="1.0" standalone="no"?>
<!DOCTYPE svg PUBLIC "-//W3C//DTD SVG 20010904//EN"
 "http://www.w3.org/TR/2001/REC-SVG-20010904/DTD/svg10.dtd">
<svg version="1.0" xmlns="http://www.w3.org/2000/svg"
 width="700.000000pt" height="700.000000pt" viewBox="0 0 700.000000 700.000000"
 preserveAspectRatio="xMidYMid meet">
<metadata>
Created by potrace 1.11, written by Peter Selinger 2001-2013
</metadata>
<g transform="translate(0.000000,700.000000) scale(0.100000,-0.100000)"
fill="#000000" stroke="none">
<path d="M3807 6903 c-2 -1 -46 -5 -98 -8 -110 -7 -175 -13 -309 -30 -40 -5
-157 -24 -245 -39 -524 -93 -1092 -327 -1521 -628 -504 -353 -855 -801 -1025
-1310 -17 -51 -33 -104 -35 -118 -3 -14 -10 -42 -15 -63 -44 -165 -62 -409
-46 -617 39 -523 282 -1023 702 -1445 105 -105 283 -261 311 -272 7 -2 106 67
221 154 114 87 280 212 368 278 88 66 162 122 165 125 3 3 50 39 105 80 55 41
105 79 111 85 6 5 23 19 38 30 41 30 259 194 276 208 9 7 60 46 115 88 55 41
201 152 325 246 124 93 342 259 485 367 143 108 267 202 275 209 8 7 89 68
180 137 91 68 210 158 265 200 155 118 376 285 535 406 79 60 151 114 160 121
8 7 116 89 240 183 1199 908 1111 839 1092 847 -7 3 -25 15 -40 27 -31 27
-241 166 -249 166 -3 0 -17 9 -32 19 -42 30 -326 173 -416 210 -44 18 -94 39
-112 47 -17 8 -34 14 -38 14 -4 0 -21 6 -38 14 -87 39 -359 120 -532 159 -204
47 -470 86 -690 103 -88 6 -523 13 -528 7z"/>
<path d="M5370 4563 c-95 -74 -599 -457 -642 -488 -16 -11 -116 -87 -224 -170
-108 -82 -218 -166 -245 -185 -26 -19 -72 -54 -101 -76 -29 -23 -213 -163
-408 -311 -195 -148 -447 -339 -560 -425 -251 -190 -543 -412 -795 -602 -191
-145 -365 -276 -660 -501 -88 -67 -261 -198 -385 -292 -124 -93 -295 -223
-380 -288 -85 -64 -224 -169 -307 -233 -84 -64 -153 -118 -153 -121 0 -6 240
-168 325 -219 84 -50 255 -138 345 -177 47 -21 105 -46 129 -57 101 -46 353
-130 517 -173 156 -42 138 -38 309 -71 138 -26 150 -28 290 -45 50 -6 101 -12
114 -14 142 -24 693 -24 886 0 22 2 65 7 95 11 30 3 69 7 85 9 29 4 132 20
188 30 15 3 37 7 50 9 539 95 1115 336 1554 650 54 38 100 72 103 75 3 3 28
24 55 46 91 72 109 89 225 205 118 117 241 263 321 380 182 266 319 596 364
880 4 25 9 52 10 61 16 86 23 389 11 479 -26 193 -50 305 -97 449 -43 132
-126 316 -192 426 -74 124 -169 260 -228 330 -77 90 -116 132 -199 215 -106
106 -287 260 -304 259 -6 0 -49 -30 -96 -66z"/>
</g>
</svg>
